<!-- Generated by IcoMoon.io -->
<svg version="1.1" xmlns="http://www.w3.org/2000/svg" width="32" height="32" viewBox="0 0 32 32">
<title>Linkedin</title>
<path d="M27.313 0h-22.625c-2.584 0-4.688 2.103-4.688 4.688v22.625c0 2.584 2.103 4.687 4.688 4.687h22.625c2.584 0 4.687-2.103 4.687-4.687v-22.625c0-2.584-2.103-4.688-4.687-4.688zM11.313 25.375h-3.75v-13.125h3.75v13.125zM11.313 10.375h-3.75v-3.75h3.75v3.75zM24.438 25.375h-3.75v-7.5c0-1.034-0.841-1.875-1.875-1.875s-1.875 0.841-1.875 1.875v7.5h-3.75v-13.125h3.75v0.707c0.982-0.305 1.621-0.707 2.812-0.707 2.543 0.003 4.688 2.284 4.688 4.98v8.145z"></path>
</svg>
